<?xml version="1.0" encoding="UTF-8"?>
<svg id="Layer_1" xmlns="http://www.w3.org/2000/svg" version="1.1" viewBox="0 0 111 40">
  <!-- Generator: Adobe Illustrator 30.8.2, SVG Export Plug-In . SVG Version: 2.1.4 Build 7)  -->
  <defs>
    <style>
      .st0 {
        display: none;
      }

      .st0, .st1 {
        fill: #fff;
      }

      .st1 {
        font-family: AntroVectra-Bolder, 'Antro Vectra';
        font-size: 30.36px;
        font-weight: 700;
      }
    </style>
  </defs>
  <path class="st0" d="M38.73,0c2.09-.16.3,3.52-.13,4.29-2.09,3.78-4.64,7.22-7.16,10.71-1.98,2.74-3.8,5.47-5.98,8.07-.99,1.2-2.02,2.36-3.1,3.48-2.44,2.49-4.32,3.63-4.08,7.57.05.85.58,1.28,1.41,1.07,3.25-.8,6.31-3.44,8.9-5.47.57-.45,1.28-2.16,1.89-2.71,2.07-2.32,5.25-5.21,8.43-5.6,1.19-.15,1.78.35,2.58,1.03.2-.06.51-.2.72-.18.27.02.55.15.73.35.3.32.26.8.14,1.19-.21.66-.6,1.24-.95,1.83-.99,1.68-2.35,3.69-2.48,5.67-.02.32-.06.73.21.97.14.13.35.17.54.16,2.32-.04,8.03-5,9.58-6.67.87-.94,1.53-2.15,2.47-3.01.37-.34.88-.69,1.4-.65.24.02.48.13.63.32.26.32.23.78.08,1.14-.28.64-.88,1.17-1.3,1.72-1.18,1.52-1.81,3.57-2.06,5.46-.05.41-.09.81.17,1.15.13.06.18.1.32.09,1.36-.07,4.93-4.84,5.87-6.12.4-.54.69-1.18,1.15-1.67.61-.06,2.06,1.13,3.02,1.14,2.32,0,4.37-.94,6.21-2.28.46-.33,1.51-1.26,2.07-1.17.19.03.36.14.47.3.61.94-1.8,3.33-2.23,4.15-.44.84-3.78,5.41-1.29,5.49,1.59.05,5.95-1.29,7.17-2.32.66-3.49,3.92-7.42,7.23-8.65,2.49-.92,3.95.82,2.43,3.17-1.41,2.19-4.69,5.69-7.28,6.35.47,1.73,2.06,1.32,3.43,1.03,2.47-.52,4.6-1.71,6.69-3.06,2.47-1.59,4.81-3.35,7.17-5.11.82-.61,1.57-1.33,2.38-1.95,1.21-.88,2.41-1.77,2.57.53.02.45-.01.9-.12,1.34-.55,2.15-.82,4.44-1.53,6.54,1.78-.51,3.63-.75,5.46-1,1.67-.23,3.42-.48,5.1-.62.83-.1,3.97-.61,3.22,1.18-.63.59-3.6.58-4.6.67-2.17.21-4.34.48-6.5.79-.71.1-3.11.31-3.41.94-.72,1.48-2.02,2.75-3.73,2.96-1.04.13-4.22-.43-4.12-1.95.26-2.76,5.06-1.82,6.71-2.95.45-.35,1.04-5.22.95-5.84l-.08-.06c-.95.27-4.78,3.65-5.95,4.38-3.7,2.31-12.25,8.24-15.81,3.36l-.07.02-.12.04c-1.65.49-3.22,1.44-4.95,1.91-1.71.47-4.61.88-5.12-1.45-.48-2.2,1.08-4.14,2.15-5.87-3.49.66-3.3,1.53-6.93.29-.1.23-.21.46-.32.69-.38.78-.85,1.5-1.41,2.16-1.15,1.38-4.16,4.12-5.88,4.84-.44.18-1.15.2-1.61-.06-1.19-.69-1-2.69-.78-3.85.08-.43.43-1.07.31-1.46-.41-.17-1.73,1.19-2.11,1.49-1.4,1.12-2.83,2.25-4.38,3.16-1.19.69-2.95,1.62-4.26.73-.98-.67-1.15-1.95-1.32-3.03-1.92,1.5-7.95,7.04-9.98,2.75-.04-.1-.09-.55-.16-.76-.44-.3-1.31.64-1.76.93-2.14,1.36-4.12,3.03-6.79,2.93-3.01-.12-2.18-3.52-2.65-4.08-.35-.01-1.25.83-1.59,1.1-2.23,1.78-4.64,3.33-7.18,4.62-1.69.88-3.6,1.73-5.54,1.14-2.23-.68-2.17-3.78-1.45-5.56,1.18-2.82,3.34-5.86,5.73-7.82,1.99-1.64,4.49-3.31,6.81-4.45,1.64-.8,4.23-1.49,5.98-.71.65.29,1.04.87,1.88,1.15,1.33-1.99,2.83-4.72,4.16-6.73C27.33,12.16,35.22,1.44,38.73,0ZM19.75,24.21c-.7-1.46-1.87-1.68-3.37-1.49-5.27.66-14.5,8.62-14.53,14.25,0,1.6,2.32,1.12,3.27.77,3.6-1.35,6.78-3.71,9.73-6.11.98-.79,2.51-1.84,2.96-2.98.57-1.44,1.42-3.02,1.94-4.45ZM39,23.45c-3.1.57-6.48,3.97-8.32,6.42-.75,1-2.53,4.69.43,3.52,3.2-1.71,6.45-4.58,8.3-7.62.31-.51.98-1.28,1.18-1.77-.07-.57-1.16-.58-1.6-.55ZM93.74,31.77c-.58.15-2.19.66-2.6,1.06.07.19.21.24.39.34.77.1,1.95-.64,2.36-1.27v-.11s-.15-.01-.15-.01ZM81.98,22.54c-2.05.96-4.81,3.54-5.27,5.81l.05.09.08-.03c1.62-1.39,4.95-3.67,5.3-5.72-.08-.15-.02-.11-.16-.16ZM37.14,3.26c-1.26.82-2.25,2.01-3.2,3.16-1.67,2.03-11.85,16.17-12.16,17.6-.03.12-.02.25,0,.37.06.08.06.11.14.15.73-.45,1.61-1.54,2.19-2.2,3.96-4.55,7.27-9.57,10.56-14.6.41-.62,2.6-3.95,2.58-4.4l-.11-.07Z"/>
  <text class="st1" transform="translate(12.74 25.49)"><tspan x="0" y="0">Achal </tspan></text>
</svg>